<svg id="visual" viewBox="0 0 900 600" width="900" height="600" xmlns="http://www.w3.org/2000/svg" xmlns:xlink="http://www.w3.org/1999/xlink" version="1.1"><rect x="0" y="0" width="900" height="600" fill="#001220"></rect><path d="M0 412L21.5 412.5C43 413 86 414 128.8 405.2C171.7 396.3 214.3 377.7 257.2 367.2C300 356.7 343 354.3 385.8 362.5C428.7 370.7 471.3 389.3 514.2 392C557 394.7 600 381.3 642.8 382.5C685.7 383.7 728.3 399.3 771.2 402.3C814 405.3 857 395.7 878.5 390.8L900 386L900 601L878.5 601C857 601 814 601 771.2 601C728.3 601 685.7 601 642.8 601C600 601 557 601 514.2 601C471.3 601 428.7 601 385.8 601C343 601 300 601 257.2 601C214.3 601 171.7 601 128.8 601C86 601 43 601 21.5 601L0 601Z" fill="#7d69fa"></path><path d="M0 411L21.5 419.7C43 428.3 86 445.7 128.8 454.7C171.7 463.7 214.3 464.3 257.2 461.2C300 458 343 451 385.8 453.2C428.7 455.3 471.3 466.7 514.2 468.8C557 471 600 464 642.8 462C685.7 460 728.3 463 771.2 465C814 467 857 468 878.5 468.5L900 469L900 601L878.5 601C857 601 814 601 771.2 601C728.3 601 685.7 601 642.8 601C600 601 557 601 514.2 601C471.3 601 428.7 601 385.8 601C343 601 300 601 257.2 601C214.3 601 171.7 601 128.8 601C86 601 43 601 21.5 601L0 601Z" fill="#4384fe"></path><path d="M0 444L21.5 448C43 452 86 460 128.8 467.5C171.7 475 214.3 482 257.2 478.3C300 474.7 343 460.3 385.8 461.2C428.7 462 471.3 478 514.2 482.8C557 487.7 600 481.3 642.8 473.2C685.7 465 728.3 455 771.2 456C814 457 857 469 878.5 475L900 481L900 601L878.5 601C857 601 814 601 771.2 601C728.3 601 685.7 601 642.8 601C600 601 557 601 514.2 601C471.3 601 428.7 601 385.8 601C343 601 300 601 257.2 601C214.3 601 171.7 601 128.8 601C86 601 43 601 21.5 601L0 601Z" fill="#0097f5"></path><path d="M0 511L21.5 506.3C43 501.7 86 492.3 128.8 489.3C171.7 486.3 214.3 489.7 257.2 493.8C300 498 343 503 385.8 508.7C428.7 514.3 471.3 520.7 514.2 517.2C557 513.7 600 500.3 642.8 494.3C685.7 488.3 728.3 489.7 771.2 492.7C814 495.7 857 500.3 878.5 502.7L900 505L900 601L878.5 601C857 601 814 601 771.2 601C728.3 601 685.7 601 642.8 601C600 601 557 601 514.2 601C471.3 601 428.7 601 385.8 601C343 601 300 601 257.2 601C214.3 601 171.7 601 128.8 601C86 601 43 601 21.5 601L0 601Z" fill="#00a4e1"></path><path d="M0 570L21.5 565.2C43 560.3 86 550.7 128.8 547.8C171.7 545 214.3 549 257.2 553C300 557 343 561 385.8 559.5C428.7 558 471.3 551 514.2 548.7C557 546.3 600 548.7 642.8 550C685.7 551.3 728.3 551.7 771.2 550.8C814 550 857 548 878.5 547L900 546L900 601L878.5 601C857 601 814 601 771.2 601C728.3 601 685.7 601 642.8 601C600 601 557 601 514.2 601C471.3 601 428.7 601 385.8 601C343 601 300 601 257.2 601C214.3 601 171.7 601 128.8 601C86 601 43 601 21.5 601L0 601Z" fill="#24abc7"></path></svg>