<svg id="visual" viewBox="0 0 900 600" width="900" height="600" xmlns="http://www.w3.org/2000/svg" xmlns:xlink="http://www.w3.org/1999/xlink" version="1.1"><path d="M0 61L82 79L164 151L245 79L327 127L409 91L491 109L573 97L655 55L736 55L818 91L900 103L900 0L818 0L736 0L655 0L573 0L491 0L409 0L327 0L245 0L164 0L82 0L0 0Z" fill="#006ccc"></path><path d="M0 115L82 181L164 217L245 121L327 175L409 193L491 169L573 145L655 127L736 175L818 139L900 145L900 101L818 89L736 53L655 53L573 95L491 107L409 89L327 125L245 77L164 149L82 77L0 59Z" fill="#0078bf"></path><path d="M0 199L82 247L164 295L245 175L327 271L409 283L491 271L573 205L655 217L736 253L818 181L900 181L900 143L818 137L736 173L655 125L573 143L491 167L409 191L327 173L245 119L164 215L82 179L0 113Z" fill="#007fad"></path><path d="M0 373L82 481L164 421L245 415L327 493L409 379L491 433L573 475L655 433L736 517L818 367L900 313L900 179L818 179L736 251L655 215L573 203L491 269L409 281L327 269L245 173L164 293L82 245L0 197Z" fill="#008297"></path><path d="M0 601L82 601L164 601L245 601L327 601L409 601L491 601L573 601L655 601L736 601L818 601L900 601L900 311L818 365L736 515L655 431L573 473L491 431L409 377L327 491L245 413L164 419L82 479L0 371Z" fill="#038279"></path></svg>